<svg width="85" height="88" viewBox="0 0 85 88" fill="none" xmlns="http://www.w3.org/2000/svg">
<path fill-rule="evenodd" clip-rule="evenodd" d="M37.6025 65.4039L54.0639 72.5025C54.8647 72.8479 55.7446 72.2146 55.6714 71.3455L55.2463 66.3025C55.2211 66.025 55.2835 65.7465 55.4246 65.5062C55.5658 65.2659 55.7786 65.0759 56.0333 64.9627L77.0727 55.6427C77.8525 55.2973 78.0014 54.2545 77.3493 53.7047L75.0887 51.7984C74.8412 51.5877 74.679 51.2939 74.6328 50.9721C74.5865 50.6503 74.6593 50.3227 74.8376 50.0508L80.4922 41.3834C80.9777 40.6392 80.4756 39.6484 79.5883 39.6L70.2269 39.0883C69.9195 39.0704 69.6277 38.9468 69.4011 38.7383C69.1745 38.5298 69.0269 38.2494 68.9834 37.9446L68.4689 34.2477C68.3537 33.42 67.4245 32.9852 66.7152 33.427L57.411 39.2222C57.1647 39.3726 56.8763 39.4391 56.589 39.4118C56.3017 39.3845 56.031 39.2647 55.8175 39.0706C55.604 38.8764 55.4592 38.6182 55.4049 38.3348C55.3505 38.0513 55.3895 37.7579 55.516 37.4985L64.0743 20.0149C64.5096 19.1256 63.6969 18.1369 62.7402 18.3918L57.6957 19.7359C57.5195 19.784 57.3352 19.7954 57.1544 19.7694C56.9736 19.7434 56.8 19.6806 56.6445 19.5848C56.4889 19.4889 56.3547 19.3622 56.2501 19.2124C56.1456 19.0626 56.0729 18.8929 56.0366 18.7139L53.4116 6.23358C53.2174 5.31027 52.0577 4.9972 51.4253 5.69734L42.8762 15.1611C42.7548 15.2975 42.6065 15.4076 42.4408 15.4844C42.2751 15.5612 42.0953 15.6032 41.9127 15.6077C41.73 15.6123 41.5484 15.5792 41.3791 15.5107C41.2097 15.4422 41.0563 15.3396 40.9282 15.2093L37.2454 11.5092C36.547 10.8075 35.3471 11.2529 35.2758 12.2404L33.8728 31.6557C33.8516 31.9435 33.7376 32.2167 33.548 32.4342C33.3584 32.6518 33.1033 32.802 32.8211 32.8624C32.5389 32.9228 32.2447 32.89 31.9827 32.7691C31.7207 32.6481 31.5049 32.4454 31.3678 32.1915L26.2441 22.5013C25.8534 21.7626 24.8316 21.6707 24.3155 22.328L22.0105 25.2637C21.8196 25.5052 21.5509 25.6733 21.2501 25.7394C20.9494 25.8055 20.635 25.7655 20.3604 25.6263L12.0133 21.3573C11.2222 20.9527 10.2897 21.5561 10.3347 22.4436L10.8593 32.7791C10.8765 33.1037 10.7746 33.4235 10.5726 33.6783C10.3707 33.9331 10.0827 34.1054 9.76276 34.1629L6.84995 34.6726C6.00979 34.8196 5.61365 35.7955 6.1137 36.4865L19.6045 55.1283C19.7676 55.3543 19.8559 55.6256 19.8569 55.9043C19.858 56.183 19.7717 56.455 19.6103 56.6822L16.7161 60.8104C16.2129 61.5282 16.6618 62.5228 17.5329 62.6204L33.2646 64.3819C30.997 69.0931 31.2083 75.633 38.1747 82.6361C38.7411 83.2055 39.5608 83.4639 40.3558 83.3499C42.8081 82.9983 43.5566 79.615 41.7945 77.8737C37.2585 73.391 36.5541 69.0492 37.6025 65.4039Z" fill="white"/>
</svg>
